<?xml version="1.0" encoding="UTF-8"?>
<!DOCTYPE svg PUBLIC "-//W3C//DTD SVG 1.1//EN" "http://www.w3.org/Graphics/SVG/1.1/DTD/svg11.dtd">
<!-- Creator: CorelDRAW 2020 (64 Bit) -->
<svg xmlns="http://www.w3.org/2000/svg" xml:space="preserve" width="10.2862mm" height="10.2863mm" version="1.1" style="shape-rendering:geometricPrecision; text-rendering:geometricPrecision; image-rendering:optimizeQuality; fill-rule:evenodd; clip-rule:evenodd"
viewBox="0 0 45.9 45.9"
 xmlns:xlink="http://www.w3.org/1999/xlink"
 xmlns:xodm="http://www.corel.com/coreldraw/odm/2003">
 <defs>
  <style type="text/css">
   <![CDATA[
    .fil0 {fill:none}
    .fil1 {fill:#13D4E2;fill-rule:nonzero}
   ]]>
  </style>
 </defs>
 <g id="Camada_x0020_1">
  <metadata id="CorelCorpID_0Corel-Layer"/>
  <g id="_2209210520864">
   <rect class="fil0" x="0" y="0" width="45.9" height="45.9"/>
   <path class="fil1" d="M20.7 0.3c3.69,0.71 7.08,2.73 9.48,5.62 3.48,4.2 4.63,9.89 3.07,15.1 -0.58,1.9 -1.52,3.59 -2.64,5.2l13.49 15.61c2.11,2.44 -1.6,5.64 -3.7,3.2l-13.3 -15.39c-13.95,9.98 -31.95,-5.8 -23.96,-20.93 3.36,-6.36 10.5,-9.77 17.56,-8.41zm0.16 5.08c-7.8,-2.34 -15.49,4.04 -14.66,12.13 0.65,6.28 6.28,10.85 12.55,10.21 8.52,-0.88 13.16,-10.57 8.31,-17.78l-0 0c-1.49,-2.21 -3.66,-3.81 -6.21,-4.56z"/>
  </g>
 </g>
</svg>
