<?xml version="1.0" encoding="UTF-8"?>
<!DOCTYPE svg PUBLIC "-//W3C//DTD SVG 1.1//EN" "http://www.w3.org/Graphics/SVG/1.1/DTD/svg11.dtd">
<!-- Creator: CorelDRAW 2021 (64 Bit) -->
<svg xmlns="http://www.w3.org/2000/svg" xml:space="preserve" width="29.457mm" height="29.457mm" version="1.1" style="shape-rendering:geometricPrecision; text-rendering:geometricPrecision; image-rendering:optimizeQuality; fill-rule:evenodd; clip-rule:evenodd"
viewBox="0 0 194.71 194.71"
 xmlns:xlink="http://www.w3.org/1999/xlink"
 xmlns:xodm="http://www.corel.com/coreldraw/odm/2003">
 <defs>
  <style type="text/css">
   <![CDATA[
    .fil0 {fill:#13D4E2}
   ]]>
  </style>
 </defs>
 <g id="Camada_x0020_1">
  <metadata id="CorelCorpID_0Corel-Layer"/>
  <path class="fil0" d="M50.13 194.71l94.45 0c27.57,0 50.13,-22.56 50.13,-50.13l0 -94.45c0,-27.57 -22.56,-50.13 -50.13,-50.13l-94.45 0c-27.57,0 -50.13,22.56 -50.13,50.13l0 94.45c0,27.57 22.56,50.13 50.13,50.13zm22.42 -143.38c7.65,-7.65 20.05,-7.65 27.7,0 7.24,7.24 7.62,18.74 1.16,26.44l39.09 0c10.82,0 19.59,8.77 19.59,19.59 0,10.82 -8.77,19.59 -19.59,19.59l-39.09 0c6.47,7.69 6.09,19.19 -1.16,26.44 -7.65,7.65 -20.05,7.65 -27.7,0l-32.17 -32.17c-7.64,-7.64 -7.68,-19.93 -0,-27.7l32.17 -32.17z"/>
 </g>
</svg>
