<?xml version="1.0" encoding="UTF-8"?>
<!DOCTYPE svg PUBLIC "-//W3C//DTD SVG 1.1//EN" "http://www.w3.org/Graphics/SVG/1.1/DTD/svg11.dtd">
<!-- Creator: CorelDRAW 2020 (64 Bit) -->
<svg xmlns="http://www.w3.org/2000/svg" xml:space="preserve" width="23.1164mm" height="23.5784mm" version="1.1" style="shape-rendering:geometricPrecision; text-rendering:geometricPrecision; image-rendering:optimizeQuality; fill-rule:evenodd; clip-rule:evenodd"
viewBox="0 0 644.51 657.4"
 xmlns:xlink="http://www.w3.org/1999/xlink"
 xmlns:xodm="http://www.corel.com/coreldraw/odm/2003">
 <defs>
  <style type="text/css">
   <![CDATA[
    .fil0 {fill:#13D4E2;fill-rule:nonzero}
   ]]>
  </style>
 </defs>
 <g id="Camada_x0020_1">
  <metadata id="CorelCorpID_0Corel-Layer"/>
  <path class="fil0" d="M434.47 350.26c22.39,-17.16 40.75,-39.32 53.38,-64.8 12.21,-24.64 19.08,-52.45 19.08,-81.89 0,-51 -20.67,-97.17 -54.09,-130.58 -33.42,-33.42 -79.59,-54.09 -130.58,-54.09 -51,0 -97.17,20.67 -130.58,54.09 -33.42,33.42 -54.09,79.59 -54.09,130.58 0,29.45 6.87,57.25 19.08,81.89 12.7,25.62 31.18,47.88 53.74,65.08 4.13,3.16 4.93,9.07 1.77,13.2 -1.06,1.39 -2.44,2.4 -3.95,3.01 -56.36,22.89 -104.29,62.2 -137.81,111.98 -30.89,45.88 -49.57,100.69 -51.38,159.79l606.45 0c-1.8,-59.1 -20.48,-113.91 -51.38,-159.79 -33.52,-49.78 -81.45,-89.09 -137.82,-111.97 -4.83,-1.95 -7.15,-7.46 -5.2,-12.28 0.72,-1.77 1.92,-3.21 3.38,-4.22zm70.27 -56.47c-11.65,23.5 -27.7,44.43 -47.07,61.7 53.64,24.88 99.31,64.11 132.07,112.76 34.59,51.36 54.78,113.19 54.78,179.7 0,5.21 -4.23,9.44 -9.44,9.44l-625.63 0c-5.21,0 -9.44,-4.23 -9.44,-9.44 0,-66.51 20.19,-128.34 54.78,-179.7 32.76,-48.65 78.42,-87.87 132.07,-112.76 -19.37,-17.27 -35.42,-38.2 -47.07,-61.7 -13.49,-27.22 -21.08,-57.86 -21.08,-90.23 0,-56.2 22.79,-107.1 59.62,-143.93 36.84,-36.84 87.73,-59.62 143.93,-59.62 56.2,0 107.1,22.79 143.93,59.62 36.84,36.84 59.62,87.73 59.62,143.93 0,32.37 -7.59,63.01 -21.08,90.23z"/>
 </g>
</svg>
