<?xml version="1.0" encoding="UTF-8"?>
<!DOCTYPE svg PUBLIC "-//W3C//DTD SVG 1.1//EN" "http://www.w3.org/Graphics/SVG/1.1/DTD/svg11.dtd">
<!-- Creator: CorelDRAW 2020 (64 Bit) -->
<svg xmlns="http://www.w3.org/2000/svg" xml:space="preserve" width="10.2594mm" height="8.3376mm" version="1.1" style="shape-rendering:geometricPrecision; text-rendering:geometricPrecision; image-rendering:optimizeQuality; fill-rule:evenodd; clip-rule:evenodd"
viewBox="0 0 34.86 28.33"
 xmlns:xlink="http://www.w3.org/1999/xlink"
 xmlns:xodm="http://www.corel.com/coreldraw/odm/2003">
 <defs>
  <style type="text/css">
   <![CDATA[
    .fil0 {fill:none;fill-rule:nonzero}
    .fil1 {fill:#13D4E2;fill-rule:nonzero}
   ]]>
  </style>
 </defs>
 <g id="Camada_x0020_1">
  <metadata id="CorelCorpID_0Corel-Layer"/>
  <path class="fil0" d="M21.72 4.44c-1.03,-1.37 -2.6,-2.14 -4.29,-2.14l0 -0c-1.68,0 -3.26,0.77 -4.29,2.14l-9.76 13.01c-2.63,3.51 -0.17,8.57 4.29,8.57l19.52 0c4.46,0 6.92,-5.07 4.29,-8.57l-9.76 -13.01zm0.3 -2.92c1.72,1.29 9.46,12.1 11.3,14.55 3.8,5.07 0.15,12.25 -6.12,12.25l-19.52 0c-6.27,0 -9.93,-7.18 -6.12,-12.25 1.84,-2.46 9.58,-13.26 11.3,-14.55 1.35,-1.01 2.97,-1.52 4.59,-1.52l0 -0c1.61,0 3.23,0.51 4.59,1.53z"/>
  <path class="fil1" d="M22.64 3.75c-2.6,-3.47 -7.81,-3.47 -10.41,0l-9.76 13.01c-3.22,4.29 -0.16,10.41 5.21,10.41l19.52 0c5.36,0 8.42,-6.12 5.21,-10.41l-9.76 -13.01z"/>
 </g>
</svg>
