<?xml version="1.0" encoding="UTF-8"?>
<!DOCTYPE svg PUBLIC "-//W3C//DTD SVG 1.1//EN" "http://www.w3.org/Graphics/SVG/1.1/DTD/svg11.dtd">
<!-- Creator: CorelDRAW 2020 (64 Bit) -->
<svg xmlns="http://www.w3.org/2000/svg" xml:space="preserve" width="10.2594mm" height="8.3376mm" version="1.1" style="shape-rendering:geometricPrecision; text-rendering:geometricPrecision; image-rendering:optimizeQuality; fill-rule:evenodd; clip-rule:evenodd"
viewBox="0 0 39.44 32.05"
 xmlns:xlink="http://www.w3.org/1999/xlink"
 xmlns:xodm="http://www.corel.com/coreldraw/odm/2003">
 <defs>
  <style type="text/css">
   <![CDATA[
    .fil0 {fill:#13D4E2;fill-rule:nonzero}
   ]]>
  </style>
 </defs>
 <g id="Camada_x0020_1">
  <metadata id="CorelCorpID_0Corel-Layer"/>
  <path class="fil0" d="M24.57 5.03c-1.17,-1.55 -2.94,-2.42 -4.85,-2.42l0 -0.01c-1.91,0 -3.69,0.87 -4.85,2.43l-11.04 14.72c-2.97,3.97 -0.19,9.7 4.85,9.7l22.08 0c5.04,0 7.83,-5.73 4.85,-9.7l-11.04 -14.72zm0.34 -3.3c1.95,1.46 10.7,13.69 12.78,16.47 4.3,5.74 0.16,13.86 -6.93,13.86l-22.08 0c-7.09,0 -11.23,-8.12 -6.93,-13.86 2.08,-2.78 10.83,-15.01 12.78,-16.47 1.53,-1.15 3.36,-1.72 5.19,-1.72l0 -0.01c1.82,0 3.65,0.58 5.19,1.73z"/>
 </g>
</svg>
