<?xml version="1.0" encoding="UTF-8"?>
<!DOCTYPE svg PUBLIC "-//W3C//DTD SVG 1.1//EN" "http://www.w3.org/Graphics/SVG/1.1/DTD/svg11.dtd">
<!-- Creator: CorelDRAW 2020 (64 Bit) -->
<svg xmlns="http://www.w3.org/2000/svg" xml:space="preserve" width="10.2594mm" height="8.3376mm" version="1.1" style="shape-rendering:geometricPrecision; text-rendering:geometricPrecision; image-rendering:optimizeQuality; fill-rule:evenodd; clip-rule:evenodd"
viewBox="0 0 39.44 32.05"
 xmlns:xlink="http://www.w3.org/1999/xlink"
 xmlns:xodm="http://www.corel.com/coreldraw/odm/2003">
 <defs>
  <style type="text/css">
   <![CDATA[
    .fil0 {fill:#13D4E2;fill-rule:nonzero}
   ]]>
  </style>
 </defs>
 <g id="Camada_x0020_1">
  <metadata id="CorelCorpID_0Corel-Layer"/>
  <path class="fil0" d="M26.65 28.58c-1.66,2.22 -4.22,3.47 -6.93,3.47l0 -0.01c-2.71,-0 -5.27,-1.25 -6.93,-3.46l-11.04 -14.72c-4.3,-5.74 -0.16,-13.86 6.93,-13.86l22.08 0c7.09,0 11.23,8.12 6.93,13.86l-11.04 14.72zm-3.3 -0.33c1.45,-1.09 10.46,-13.55 12.26,-15.95 2.97,-3.97 0.19,-9.7 -4.85,-9.7l-22.08 0c-5.04,0 -7.83,5.73 -4.85,9.7 1.8,2.4 10.82,14.86 12.26,15.95 1.07,0.8 2.35,1.2 3.63,1.2l0 -0.01c1.29,0 2.57,-0.4 3.63,-1.2z"/>
 </g>
</svg>
