<?xml version="1.0" encoding="UTF-8"?>
<!DOCTYPE svg PUBLIC "-//W3C//DTD SVG 1.1//EN" "http://www.w3.org/Graphics/SVG/1.1/DTD/svg11.dtd">
<!-- Creator: CorelDRAW 2020 (64 Bit) -->
<svg xmlns="http://www.w3.org/2000/svg" xml:space="preserve" width="12.075mm" height="22.8699mm" version="1.1" style="shape-rendering:geometricPrecision; text-rendering:geometricPrecision; image-rendering:optimizeQuality; fill-rule:evenodd; clip-rule:evenodd"
viewBox="0 0 26.91 50.96"
 xmlns:xlink="http://www.w3.org/1999/xlink"
 xmlns:xodm="http://www.corel.com/coreldraw/odm/2003">
 <defs>
  <style type="text/css">
   <![CDATA[
    .fil0 {fill:#13D4E2;fill-rule:nonzero}
   ]]>
  </style>
 </defs>
 <g id="Camada_x0020_1">
  <metadata id="CorelCorpID_0Corel-Layer"/>
  <path class="fil0" d="M1.59 3.22l8.32 -3.09c0.7,-0.26 1.45,-0.13 2.1,0.29 0.59,0.38 1.1,1 1.39,1.78l13.45 36.27c0.05,0.14 0.06,0.29 0.03,0.43l-2.43 11.47c-0.09,0.41 -0.49,0.67 -0.89,0.58 -0.12,-0.03 -0.23,-0.08 -0.32,-0.16l-9.3 -7.09c-0.12,-0.09 -0.2,-0.21 -0.25,-0.34l-8.66 -23.37c-0.14,-0.39 0.06,-0.82 0.45,-0.97 0.39,-0.14 0.82,0.06 0.97,0.45l8.37 22.58 10.35 -3.84 -10.12 -27.3 -5.3 1.96c-0.39,0.14 -0.82,-0.06 -0.97,-0.45 -0.14,-0.39 0.06,-0.82 0.45,-0.97l5.29 -1.96 -2.53 -6.82c-0.17,-0.44 -0.45,-0.78 -0.77,-0.99 -0.25,-0.16 -0.53,-0.22 -0.76,-0.15 -2.77,0.99 -5.66,2.04 -8.39,3.11 -0.23,0.09 -0.4,0.32 -0.49,0.61 -0.11,0.36 -0.1,0.81 0.06,1.26l2.53 6.82 2.3 -0.85c0.39,-0.14 0.82,0.06 0.97,0.45 0.14,0.39 -0.06,0.82 -0.45,0.97l-3.01 1.11c-0.39,0.14 -0.82,-0.06 -0.97,-0.45l-0 -0 -0 -0.01 -0 -0.01 -2.77 -7.48c-0.28,-0.77 -0.3,-1.57 -0.1,-2.24 0.23,-0.74 0.72,-1.34 1.42,-1.6l0.04 -0.01zm14.27 40.05l7.37 5.62 1.92 -9.07 -9.29 3.45z"/>
 </g>
</svg>
