<?xml version="1.0" encoding="UTF-8"?>
<!DOCTYPE svg PUBLIC "-//W3C//DTD SVG 1.1//EN" "http://www.w3.org/Graphics/SVG/1.1/DTD/svg11.dtd">
<!-- Creator: CorelDRAW 2020 (64 Bit) -->
<svg xmlns="http://www.w3.org/2000/svg" xml:space="preserve" width="16.5857mm" height="19.959mm" version="1.1" style="shape-rendering:geometricPrecision; text-rendering:geometricPrecision; image-rendering:optimizeQuality; fill-rule:evenodd; clip-rule:evenodd"
viewBox="0 0 57.33 68.99"
 xmlns:xlink="http://www.w3.org/1999/xlink"
 xmlns:xodm="http://www.corel.com/coreldraw/odm/2003">
 <defs>
  <style type="text/css">
   <![CDATA[
    .fil0 {fill:none}
    .fil1 {fill:#13D4E2;fill-rule:nonzero}
   ]]>
  </style>
 </defs>
 <g id="Camada_x0020_1">
  <metadata id="CorelCorpID_0Corel-Layer"/>
  <g id="_2132386931600">
   <polygon class="fil0" points="1.19,14.56 7.65,14.56 7.65,64.46 9.66,67.94 46.01,67.94 49.26,64.68 49.26,14.96 55.84,14.96 55.84,9.3 52.58,5.93 36.63,5.93 36.63,1.75 20.97,1.75 20.97,5.35 5.48,5.35 1.59,8.61 "/>
   <path class="fil1" d="M11.29 66.65l4.72 0 0 -10.46c0,-0.65 0.52,-1.17 1.17,-1.17 0.65,0 1.17,0.52 1.17,1.17l0 10.46 9.15 0 0 -31.95c0,-0.65 0.52,-1.17 1.17,-1.17 0.65,0 1.17,0.52 1.17,1.17l0 31.95 9.15 0 0 -25.32c0,-0.65 0.52,-1.17 1.17,-1.17 0.65,0 1.17,0.52 1.17,1.17l0 25.32 4.72 0c0.69,0 1.31,-0.28 1.76,-0.73 0.45,-0.45 0.73,-1.07 0.73,-1.76l0 -47.67c0,-0.25 -0.03,-0.48 -0.09,-0.69l-0.03 -0.09 -7.08 0 0 13.58c0,0.65 -0.52,1.17 -1.17,1.17 -0.65,0 -1.17,-0.52 -1.17,-1.17l0 -13.58 -30.06 0 -0.03 0.09c-0.06,0.21 -0.09,0.44 -0.09,0.69l0 47.67c0,0.69 0.28,1.31 0.73,1.76 0.45,0.45 1.07,0.73 1.76,0.73zm7.06 -24.64c0,0.65 -0.52,1.17 -1.17,1.17 -0.65,0 -1.17,-0.52 -1.17,-1.17l0 -22.75c0,-0.65 0.52,-1.17 1.17,-1.17 0.65,0 1.17,0.52 1.17,1.17l0 22.75zm17.04 -37.44l0 -2.23 -13.44 0 0 2.23 13.44 0zm2.34 -2.85l0 2.85 13.49 0c1.68,0 3.21,0.69 4.32,1.8 1.11,1.11 1.8,2.64 1.8,4.32l0 3.86c0,0.65 -0.52,1.17 -1.17,1.17l-5.35 0c0.04,0.26 0.07,0.51 0.07,0.77l0 47.67c0,1.33 -0.54,2.53 -1.42,3.41l-0 0c-0.88,0.87 -2.08,1.42 -3.41,1.42l-5.89 0 -11.49 0 -11.49 0 -5.89 0c-1.33,0 -2.53,-0.54 -3.41,-1.42l-0 -0c-0.87,-0.87 -1.42,-2.08 -1.42,-3.41l0 -47.67c0,-0.26 0.02,-0.52 0.07,-0.77l-5.35 0c-0.65,0 -1.17,-0.52 -1.17,-1.17l0 -3.86c0,-1.65 0.66,-3.15 1.73,-4.25l0.07 -0.07c1.11,-1.11 2.64,-1.8 4.32,-1.8l13.49 0 0 -2.85c0,-0.47 0.19,-0.9 0.5,-1.22 0.31,-0.31 0.74,-0.5 1.22,-0.5l14.68 0c0.47,0 0.9,0.19 1.22,0.5 0.31,0.31 0.5,0.74 0.5,1.22zm17.26 11.65l0 -2.69c0,-1.04 -0.43,-1.98 -1.11,-2.66 -0.68,-0.68 -1.63,-1.11 -2.66,-1.11l-14.66 0 -15.78 0 -14.66 0c-1.04,0 -1.98,0.43 -2.67,1.11l-0.05 0.05c-0.65,0.68 -1.06,1.6 -1.06,2.62l0 2.69 5.85 0 40.94 0 5.85 0z"/>
  </g>
 </g>
</svg>
