<?xml version="1.0" encoding="UTF-8"?>
<!DOCTYPE svg PUBLIC "-//W3C//DTD SVG 1.1//EN" "http://www.w3.org/Graphics/SVG/1.1/DTD/svg11.dtd">
<!-- Creator: CorelDRAW 2021 (64 Bit) -->
<svg xmlns="http://www.w3.org/2000/svg" xml:space="preserve" width="29.457mm" height="29.457mm" version="1.1" style="shape-rendering:geometricPrecision; text-rendering:geometricPrecision; image-rendering:optimizeQuality; fill-rule:evenodd; clip-rule:evenodd"
viewBox="0 0 287.33 287.33"
 xmlns:xlink="http://www.w3.org/1999/xlink"
 xmlns:xodm="http://www.corel.com/coreldraw/odm/2003">
 <defs>
  <style type="text/css">
   <![CDATA[
    .fil0 {fill:#13D4E2}
   ]]>
  </style>
 </defs>
 <g id="Camada_x0020_1">
  <metadata id="CorelCorpID_0Corel-Layer"/>
  <path class="fil0" d="M73.97 287.33l139.38 0c40.69,0 73.97,-33.29 73.97,-73.97l0 -139.38c0,-40.69 -33.29,-73.97 -73.97,-73.97l-139.38 0c-40.69,0 -73.97,33.29 -73.97,73.97l0 139.38c0,40.69 33.29,73.97 73.97,73.97zm69.69 -186.77l24.81 -24.81c11.29,-11.29 29.59,-11.28 40.88,0 11.29,11.29 11.28,29.59 0,40.87l-27.04 27.04 27.04 27.04c11.28,11.29 11.29,29.59 0,40.87 -11.29,11.29 -29.59,11.29 -40.88,0l-24.81 -24.81 -24.81 24.81c-11.29,11.29 -29.59,11.28 -40.88,-0 -11.29,-11.29 -11.28,-29.59 0,-40.87l27.04 -27.04 -27.04 -27.04c-11.28,-11.29 -11.29,-29.59 0,-40.87 11.29,-11.29 29.59,-11.29 40.88,-0l24.81 24.81z"/>
 </g>
</svg>
