<?xml version="1.0" encoding="UTF-8"?>
<!DOCTYPE svg PUBLIC "-//W3C//DTD SVG 1.1//EN" "http://www.w3.org/Graphics/SVG/1.1/DTD/svg11.dtd">
<!-- Creator: CorelDRAW 2020 (64 Bit) -->
<svg xmlns="http://www.w3.org/2000/svg" xml:space="preserve" width="11.3414mm" height="11.3414mm" version="1.1" style="shape-rendering:geometricPrecision; text-rendering:geometricPrecision; image-rendering:optimizeQuality; fill-rule:evenodd; clip-rule:evenodd"
viewBox="0 0 62.83 62.83"
 xmlns:xlink="http://www.w3.org/1999/xlink"
 xmlns:xodm="http://www.corel.com/coreldraw/odm/2003">
 <defs>
  <style type="text/css">
   <![CDATA[
    .fil0 {fill:none}
    .fil1 {fill:#BAE6E9;fill-rule:nonzero}
   ]]>
  </style>
 </defs>
 <g id="Camada_x0020_1">
  <metadata id="CorelCorpID_0Corel-Layer"/>
  <rect class="fil0" x="0.08" y="0.08" width="62.66" height="62.66"/>
  <path class="fil1" d="M37.28 56.96c0,3.24 -2.63,5.86 -5.86,5.86 -3.24,0 -5.86,-2.63 -5.86,-5.86l0 -19.69 -19.69 0c-3.24,0 -5.86,-2.63 -5.86,-5.86 0,-3.24 2.63,-5.86 5.86,-5.86l19.69 0 0 -19.69c0,-3.24 2.63,-5.86 5.86,-5.86 3.24,0 5.86,2.63 5.86,5.86l0 19.69 19.69 0c3.24,0 5.86,2.63 5.86,5.86 0,3.24 -2.63,5.86 -5.86,5.86l-19.69 0 0 19.69z"/>
 </g>
</svg>
