<?xml version="1.0" encoding="UTF-8"?>
<!DOCTYPE svg PUBLIC "-//W3C//DTD SVG 1.1//EN" "http://www.w3.org/Graphics/SVG/1.1/DTD/svg11.dtd">
<!-- Creator: CorelDRAW 2020 (64 Bit) -->
<svg xmlns="http://www.w3.org/2000/svg" xml:space="preserve" width="17.3012mm" height="22.4563mm" version="1.1" style="shape-rendering:geometricPrecision; text-rendering:geometricPrecision; image-rendering:optimizeQuality; fill-rule:evenodd; clip-rule:evenodd"
viewBox="0 0 217.03 281.7"
 xmlns:xlink="http://www.w3.org/1999/xlink"
 xmlns:xodm="http://www.corel.com/coreldraw/odm/2003">
 <defs>
  <style type="text/css">
   <![CDATA[
    .fil0 {fill:#13D4E2;fill-rule:nonzero}
   ]]>
  </style>
 </defs>
 <g id="Camada_x0020_1">
  <metadata id="CorelCorpID_0Corel-Layer"/>
  <path class="fil0" d="M38.24 0l78.96 0c27.46,0 52.42,11.23 70.51,29.32 18.09,18.09 29.32,43.05 29.32,70.51l0 144.43c0,10.3 -4.21,19.66 -11,26.44 -6.78,6.78 -16.14,11 -26.44,11l-142.16 0c-10.3,0 -19.66,-4.21 -26.44,-11 -6.78,-6.78 -11,-16.15 -11,-26.44l0 -206.03c0,-10.52 4.3,-20.08 11.23,-27.01 6.93,-6.93 16.49,-11.23 27.01,-11.23zm122.24 86.3l22.27 0c7.09,0 13.53,-2.9 18.21,-7.58 1.45,-1.45 2.73,-3.06 3.8,-4.82 -4.4,-14.74 -12.43,-27.95 -23.06,-38.57 -11.5,-11.5 -26.03,-19.97 -42.24,-24.07 -1.21,0.75 -2.32,1.64 -3.32,2.64 -3.33,3.33 -5.4,7.93 -5.4,12.98l0 29.68c0,8.17 3.35,15.61 8.74,21 5.39,5.39 12.83,8.74 21,8.74zm46.75 -1.85l-0.26 0.27 0 0.02c-6.21,6.21 -14.79,10.07 -24.22,10.07l-22.27 0c-10.52,0 -20.08,-4.3 -27.01,-11.23 -6.93,-6.93 -11.23,-16.49 -11.23,-27.01l0 -29.68c0,-6.73 2.51,-12.91 6.63,-17.64 -3.82,-0.49 -7.72,-0.75 -11.68,-0.75l-78.96 0c-8.17,0 -15.61,3.35 -21,8.74 -5.39,5.39 -8.74,12.83 -8.74,21l0 206.03c0,7.96 3.26,15.19 8.5,20.44 5.25,5.25 12.48,8.5 20.44,8.5l142.16 0c7.96,0 15.19,-3.26 20.44,-8.5 5.24,-5.24 8.5,-12.48 8.5,-20.44l0 -144.43c0,-5.24 -0.45,-10.39 -1.31,-15.39zm-169.24 -11.02c-2.35,0 -4.25,-1.9 -4.25,-4.25 0,-2.35 1.9,-4.25 4.25,-4.25l57.06 0c2.35,0 4.25,1.9 4.25,4.25 0,2.35 -1.9,4.25 -4.25,4.25l-57.06 0zm0 55.32c-2.35,0 -4.25,-1.9 -4.25,-4.25 0,-2.35 1.9,-4.25 4.25,-4.25l141.06 0c2.35,0 4.25,1.9 4.25,4.25 0,2.35 -1.9,4.25 -4.25,4.25l-141.06 0zm0 55.32c-2.35,0 -4.25,-1.9 -4.25,-4.25 0,-2.35 1.9,-4.25 4.25,-4.25l141.06 0c2.35,0 4.25,1.9 4.25,4.25 0,2.35 -1.9,4.25 -4.25,4.25l-141.06 0zm0 55.32c-2.35,0 -4.25,-1.9 -4.25,-4.25 0,-2.35 1.9,-4.25 4.25,-4.25l141.06 0c2.35,0 4.25,1.9 4.25,4.25 0,2.35 -1.9,4.25 -4.25,4.25l-141.06 0z"/>
 </g>
</svg>
