<?xml version="1.0" encoding="UTF-8"?>
<!DOCTYPE svg PUBLIC "-//W3C//DTD SVG 1.1//EN" "http://www.w3.org/Graphics/SVG/1.1/DTD/svg11.dtd">
<!-- Creator: CorelDRAW 2020 (64 Bit) -->
<svg xmlns="http://www.w3.org/2000/svg" xml:space="preserve" width="43.6417mm" height="23.5784mm" version="1.1" style="shape-rendering:geometricPrecision; text-rendering:geometricPrecision; image-rendering:optimizeQuality; fill-rule:evenodd; clip-rule:evenodd"
viewBox="0 0 2396.32 1294.67"
 xmlns:xlink="http://www.w3.org/1999/xlink"
 xmlns:xodm="http://www.corel.com/coreldraw/odm/2003">
 <defs>
  <style type="text/css">
   <![CDATA[
    .fil0 {fill:#13D4E2;fill-rule:nonzero}
   ]]>
  </style>
 </defs>
 <g id="Camada_x0020_1">
  <metadata id="CorelCorpID_0Corel-Layer"/>
  <path class="fil0" d="M2074.51 826.18c32.96,-25.29 59.97,-57.93 78.56,-95.45 18,-36.33 28.13,-77.35 28.13,-120.79 0,-75.22 -30.49,-143.32 -79.77,-192.6 -49.28,-49.28 -117.38,-79.77 -192.6,-79.77 -44.13,0 -85.75,10.44 -122.49,28.97 -38.25,19.29 -71.34,47.33 -96.62,81.48 -6.09,8.22 -17.71,9.94 -25.93,3.85 -8.22,-6.09 -9.94,-17.71 -3.85,-25.93 28.71,-38.78 66.28,-70.62 109.7,-92.52 41.92,-21.13 89.22,-33.04 139.19,-33.04 85.47,0 162.87,34.65 218.89,90.68 56.02,56.02 90.68,133.42 90.68,218.89 0,49.2 -11.54,95.8 -32.06,137.21 -16.71,33.73 -39.4,63.97 -66.65,89.35 78.54,37.74 145.43,95.96 193.76,167.74 52.32,77.7 82.87,171.23 82.87,271.83l0 18.6 -486.37 0c-10.27,0 -18.6,-8.33 -18.6,-18.6 0,-10.27 8.33,-18.6 18.6,-18.6l448.8 0c-3.49,-85.99 -31.05,-165.71 -76.09,-232.61 -49.75,-73.87 -120.89,-132.22 -204.57,-166.18 -9.5,-3.85 -14.09,-14.68 -10.24,-24.19 1.42,-3.49 3.77,-6.32 6.66,-8.31zm-656.06 -135.86c44.42,-33.87 80.83,-77.71 105.83,-128.16 24.05,-48.53 37.57,-103.29 37.57,-161.28 0,-100.43 -40.71,-191.36 -106.52,-257.17 -65.81,-65.81 -156.74,-106.52 -257.17,-106.52 -100.43,0 -191.36,40.71 -257.17,106.52 -65.81,65.81 -106.52,156.74 -106.52,257.17 0,57.99 13.52,112.74 37.57,161.28 25.01,50.46 61.41,94.3 105.83,128.16l25.86 19.72 -30.15 12.24c-111.01,45.06 -205.4,122.47 -271.42,220.5 -60.84,90.35 -97.63,198.3 -101.18,314.68l1194.33 0c-3.55,-116.39 -40.34,-224.34 -101.18,-314.68 -66.01,-98.03 -160.41,-175.45 -271.42,-220.5l-30.15 -12.24 25.87 -19.72zm139.1 -111.75c-22.94,46.28 -54.55,87.5 -92.7,121.52 105.64,49.01 195.57,126.25 260.09,222.06 68.11,101.15 107.87,222.91 107.87,353.91l0 18.6 -1269.3 0 0 -18.6c0,-130.99 39.76,-252.76 107.87,-353.91 64.52,-95.81 154.45,-173.06 260.09,-222.06 -38.15,-34.02 -69.76,-75.24 -92.7,-121.52 -26.56,-53.61 -41.51,-113.95 -41.51,-177.7 0,-110.69 44.88,-210.92 117.42,-283.46 72.55,-72.55 172.78,-117.42 283.46,-117.42 110.7,0 210.92,44.88 283.46,117.42 72.55,72.55 117.42,172.78 117.42,283.46 0,63.74 -14.94,124.09 -41.51,177.7zm-781.86 144.47c-3.73,9.54 -14.5,14.26 -24.04,10.53 -9.54,-3.73 -14.26,-14.5 -10.53,-24.04 5.14,-13.1 9.3,-26.55 12.33,-40.22 2.99,-13.43 4.98,-27.39 5.9,-41.76 0.64,-10.22 9.46,-18 19.68,-17.36 10.22,0.64 18,9.46 17.36,19.68 -1.02,16.04 -3.31,31.9 -6.76,47.42 -3.53,15.89 -8.21,31.17 -13.93,45.73zm-39.3 -297.1c6.09,8.22 4.37,19.84 -3.85,25.93 -8.22,6.09 -19.84,4.37 -25.93,-3.85 -25.29,-34.16 -58.38,-62.21 -96.63,-81.5 -36.74,-18.53 -78.35,-28.97 -122.48,-28.97 -75.22,0 -143.32,30.49 -192.6,79.77 -49.28,49.28 -79.77,117.38 -79.77,192.6 0,43.44 10.13,84.47 28.13,120.79 18.72,37.78 45.99,70.62 79.27,95.99l25.87 19.72 -30.15 12.24c-83.68,33.96 -154.82,92.31 -204.57,166.18 -45.05,66.9 -72.61,146.62 -76.09,232.61l448.79 0c10.27,0 18.6,8.33 18.6,18.6 0,10.27 -8.33,18.6 -18.6,18.6l-486.37 0 0 -18.6c0,-100.6 30.55,-194.13 82.87,-271.83 48.34,-71.78 115.23,-129.99 193.76,-167.74 -27.25,-25.37 -49.93,-55.62 -66.65,-89.35 -20.52,-41.41 -32.06,-88.01 -32.06,-137.21 0,-85.47 34.65,-162.87 90.68,-218.89 56.02,-56.02 133.42,-90.68 218.89,-90.68 49.98,0 97.28,11.92 139.18,33.04 43.42,21.9 81,53.75 109.71,92.53zm863.56 203.94c-0.64,-10.22 7.13,-19.04 17.36,-19.68 10.22,-0.64 19.04,7.13 19.68,17.36 0.92,14.38 2.91,28.34 5.9,41.77 3.03,13.66 7.18,27.1 12.33,40.21 3.73,9.54 -0.99,20.31 -10.53,24.04 -9.54,3.73 -20.31,-0.99 -24.04,-10.53 -5.73,-14.57 -10.41,-29.85 -13.93,-45.72 -3.45,-15.53 -5.74,-31.4 -6.76,-47.44z"/>
 </g>
</svg>
